<svg width="200" height="200" viewBox="0 0 200 200" fill="none" xmlns="http://www.w3.org/2000/svg">
<circle cx="100" cy="100" r="100" fill="white"/>
<path d="M97.95 158.25L58.95 61.35C54.65 50.45 49.8 45 44.4 45H43.95V43.5H91.95V45H91.35C86.75 45 83.7 46.4 82.2 49.2C80.7 51.9 80.95 55.7 82.95 60.6L109.65 128.1L137.1 60.6C138.9 56.1 138.65 52.45 136.35 49.65C134.15 46.75 130.35 45.2 124.95 45V43.5H154.2V45C152.3 45.1 150.35 46 148.35 47.7C146.45 49.4 144.65 51.5 142.95 54C141.35 56.4 140.05 58.85 139.05 61.35L99.45 158.25H97.95Z" fill="#DB261D"/>
</svg>
