<svg width="16" height="16" viewBox="0 0 16 16" fill="none" xmlns="http://www.w3.org/2000/svg">
<path d="M0.500366 8C0.500366 3.85786 3.85823 0.500001 8.00037 0.5C12.1425 0.5 15.5004 3.85786 15.5004 8C15.5004 12.1421 12.1425 15.5 8.00037 15.5C3.85823 15.5 0.500366 12.1421 0.500366 8Z" stroke="#DB261D" stroke-linecap="round" stroke-linejoin="round"/>
<path d="M8.00037 15.4287L8.00037 0.571569" stroke="#DB261D" stroke-linecap="round" stroke-linejoin="round"/>
<path d="M10.5 15C10.5 15 12.572 12.643 12.572 8.00014C12.572 3.35728 10.5 1 10.5 1" stroke="#DB261D" stroke-linecap="round" stroke-linejoin="round"/>
<path d="M5.50073 1C5.50073 1 3.42874 3.357 3.42874 7.99986C3.42874 12.6427 5.50073 15 5.50073 15" stroke="#DB261D" stroke-linecap="round" stroke-linejoin="round"/>
<path d="M15.4287 8L0.5 8" stroke="#DB261D" stroke-linecap="round" stroke-linejoin="round"/>
<path d="M1.50037 5C1.50037 5 3.50037 5 8.00037 5C12.5004 5 14.5004 5 14.5004 5" stroke="#DB261D" stroke-linecap="round" stroke-linejoin="round"/>
<path d="M1.50037 11C1.50037 11 3.50037 11 8.00037 11C12.5004 11 14.5004 11 14.5004 11" stroke="#DB261D" stroke-linecap="round" stroke-linejoin="round"/>
</svg>
